<?xml version="1.0" encoding="utf-8"?>
<!-- Generator: Adobe Illustrator 22.1.0, SVG Export Plug-In . SVG Version: 6.00 Build 0)  -->
<svg version="1.1" id="Layer_1" xmlns="http://www.w3.org/2000/svg" xmlns:xlink="http://www.w3.org/1999/xlink" x="0px" y="0px"
	 viewBox="0 0 1000 1000" style="enable-background:new 0 0 1000 1000;" xml:space="preserve">
<style type="text/css">
	.st0{fill:#0B3856;}
	.st1{fill:#FFFFFF;}
	.st2{fill:#1980D2;}
	.st3{fill:#7AAFD3;}
</style>
<circle class="st0" cx="500" cy="500" r="500"/>
<g>
	<path class="st1" d="M62.2,512.3c1.5-3,3.1-7.6,3.1-12.3c0-5.1-2.1-7.8-5.3-7.8c-3.1,0-4.8,2.3-7,8.2c-2.9,8.2-7.4,13.5-14.6,13.4
		c-8.4,0-14.8-7.1-14.7-18.7c0-5.5,1.2-9.6,2.6-12.5l9,2.5c-1,2-2.4,5.5-2.4,10.3c0,4.8,2.1,7.2,4.7,7.2c3.1,0,4.5-2.7,7-9.1
		c3.3-8.7,7.8-12.7,14.7-12.7c8.2,0,15.2,6.4,15.1,19.9c0,5.6-1.5,11.2-3.1,13.9L62.2,512.3z"/>
	<path class="st1" d="M56.4,443.3l-1.7,18l11.6,1.1l1.9-20.1l9.1,0.9l-3,31.2l-48.9-4.7l2.9-30.2l9.1,0.9l-1.8,19.1l10.2,1l1.7-18
		L56.4,443.3z"/>
	<path class="st1" d="M29.9,427.5l2.1-10.8l21.4,4.1l0-0.2c-1.7-1.4-3.2-2.9-4.7-4.3l-13.9-14.1l2.6-13.4l17.5,19.9l31-11.5
		L83.3,410l-23.1,7.8l4.3,5.1l15.8,3l-2.1,10.8L29.9,427.5z"/>
	<path class="st1" d="M95.1,361.3c0.4,2.2,0.2,7-1.5,12.7c-4.8,16.3-17.4,21.7-30.8,17.8c-16.1-4.7-21.7-18.8-17.5-33.1
		c1.6-5.5,4-9.4,5.5-11l7.8,4.7c-1.5,1.9-3.3,4.7-4.4,8.4c-2.5,8.5,0.7,16.6,11.2,19.6c9.5,2.8,17-1.1,19.8-10.6
		c0.9-3.2,1.3-7,1.1-9.3L95.1,361.3z"/>
	<path class="st1" d="M56.8,328.1l46.1,17.2l-3.9,10.5l-46.1-17.2L56.8,328.1z"/>
	<path class="st1" d="M65,308.4l4.5-10.1l28.4,12.5c12.8,5.7,14.6,13.8,10.2,23.6c-1,2.3-2.8,5.2-4.3,6.9l-7.7-4.8
		c1.1-1.2,2.2-2.9,3.1-4.9c1.9-4.3,1.1-7.8-5.9-10.9L65,308.4z"/>
	<path class="st1" d="M112.2,294.4l9.4,9.2l-5.6,10.1l-35.8-36.9l7-12.8l50.4,10.4l-5.8,10.5l-12.9-2.8L112.2,294.4z M111,279.5
		l-10.6-2.4c-3-0.6-6.6-1.6-9.5-2.4l-0.1,0.1c2.2,2,5.1,4.5,7.2,6.6l7.7,7.6L111,279.5z"/>
	<path class="st1" d="M109.8,229c1.6-3.1,4.1-7.2,8.2-12.7c4.1-5.5,8.1-8.6,12.1-9.7c3.9-1,8.4-0.3,12.3,2.6
		c3.9,2.9,6.2,6.6,6.7,10.6c0.6,5.2-1.5,10.6-5.4,15.9c-0.9,1.2-1.7,2.2-2.4,2.9l14.1,10.5l-6.6,8.8L109.8,229z M134.3,233.6
		c0.7-0.6,1.5-1.5,2.5-2.8c3.5-4.7,3.3-9.5-0.7-12.5c-3.6-2.7-7.7-1.8-11,2.6c-1.4,1.8-2.1,3.2-2.4,3.9L134.3,233.6z"/>
	<path class="st1" d="M137.8,192.6c2-3,5.2-7.3,9.2-11.6c4.9-5.4,9.2-8.4,13.6-9.1c3.7-0.6,7.3,0.5,10.7,3.6
		c4.6,4.2,4.8,10.4,3.1,14.6l0.2,0.1c3.3-1.6,7-0.8,11.2,1.3c5.1,2.6,10.9,5.8,12.9,6.4l-7.7,8.4c-1.6-0.3-5.3-2.2-10.8-5.2
		c-5.4-3.2-8.1-2.7-11.2,0.6l-2.3,2.5l14.3,13l-7.4,8.1L137.8,192.6z M160.8,198.7l2.9-3.2c3.7-4.1,3.9-8.4,0.7-11.3
		c-3.3-3-7.1-2.3-10.6,1.4c-1.8,2-2.7,3.3-3.1,4L160.8,198.7z"/>
	<path class="st1" d="M177,151.1l33.8,35.7l-8.1,7.7l-33.8-35.7L177,151.1z"/>
	<path class="st1" d="M237.8,140.1c-3.8-4.5-8.4-10-12.8-15.7l-0.2,0.1c2.7,5.9,5.4,12.7,7.4,18.4l7.1,18.8l-6.8,5.3l-15.9-11.8
		c-4.8-3.6-10.4-8-15.3-12.4l-0.1,0.1c3.9,5.4,8.4,11.5,11.8,16.6l10.8,15.3l-8.1,6.3L188,140.5l11.7-9.1l13.9,10
		c4.7,3.5,9.7,7.4,14.1,11.3l0.2-0.1c-2.4-5.3-5.1-11.5-7.2-16.8l-5.9-16.1l11.4-8.9l32.4,37.1l-8.6,6.7L237.8,140.1z"/>
	<path class="st1" d="M279,111.3l-15.4,9.4l6.1,10l17.2-10.5l4.8,7.8l-26.8,16.4l-25.7-42l25.9-15.8l4.8,7.8l-16.4,10l5.3,8.7
		l15.4-9.4L279,111.3z"/>
	<path class="st1" d="M297.2,124.7l-21.3-44.3l11.7-5.6l17,11.8c4.9,3.4,10.2,7.7,14.5,11.7l0.2-0.1c-3.5-5.5-6.6-11.4-9.7-18.1
		l-6.2-13l9.2-4.4l21.3,44.3l-10.5,5.1l-17.7-12.5c-4.9-3.5-10.6-7.8-15.2-11.9l-0.2,0.2c3.1,5.7,6.2,11.9,9.7,19.1l6.4,13.3
		L297.2,124.7z"/>
	<path class="st1" d="M333.7,54.7l10.4-3.9l10.9,29.1c4.9,13.1,0.3,20.1-9.8,23.8c-2.4,0.9-5.7,1.7-8,1.7l-2-8.8
		c1.6-0.1,3.6-0.4,5.6-1.2c4.4-1.6,6.4-4.6,3.7-11.8L333.7,54.7z"/>
	<path class="st1" d="M391.5,66.1l-17.4,5l3.2,11.2l19.4-5.6l2.5,8.8l-30.2,8.6l-13.5-47.3l29.2-8.3l2.5,8.8l-18.5,5.3l2.8,9.8
		l17.4-5L391.5,66.1z"/>
	<path class="st1" d="M405.5,83.8l-8.6-48.4l12.8-2.3l13.2,16c3.8,4.6,7.7,10.1,10.8,15.2l0.2,0c-1.9-6.3-3.2-12.8-4.5-20l-2.5-14.2
		l10.1-1.8l8.6,48.4l-11.5,2l-13.7-16.8c-3.8-4.7-8.1-10.3-11.4-15.6l-0.2,0.1c1.4,6.3,2.8,13.1,4.2,21l2.6,14.6L405.5,83.8z"/>
	<path class="st1" d="M481.6,53.1l-18,1.3l0.9,11.6l20.2-1.5l0.7,9.1L453.9,76l-3.6-49l30.3-2.2l0.7,9.1l-19.1,1.4l0.7,10.2l18-1.3
		L481.6,53.1z"/>
	<path class="st1" d="M508.4,24.5l30,1.5L538,35l-18.9-0.9l-0.6,11.2l17.6,0.9l-0.4,9l-17.6-0.9l-1,19.8L506,73.6L508.4,24.5z"/>
	<path class="st1" d="M560.4,28.5l-5.7,48.8L543.6,76l5.7-48.8L560.4,28.5z"/>
	<path class="st1" d="M561.4,71.8L590.7,43l0.1-0.3l-20.9-4l1.7-9l35.1,6.7l-1.2,6.3l-28.7,28.4l-0.1,0.3l22.9,4.3l-1.7,9l-37.6-7.1
		L561.4,71.8z"/>
	<path class="st1" d="M627.2,42l-12.6,47.5l-10.8-2.9l12.6-47.5L627.2,42z"/>
	<path class="st1" d="M639.2,45.2l10.4,3.6l-7.1,20.5l0.2,0.1c1.7-1.4,3.3-2.7,4.9-4l15.9-11.8l12.9,4.5l-22.2,14.5l7,32.3
		l-12.3-4.3l-4.4-24l-5.7,3.5l-5.3,15.2l-10.4-3.6L639.2,45.2z"/>
	<path class="st1" d="M699.4,99.7l-16.5-7.5l-4.9,10.6l18.4,8.4l-3.8,8.3l-28.5-13l20.4-44.7l27.6,12.6l-3.8,8.3l-17.5-8l-4.2,9.3
		l16.5,7.5L699.4,99.7z"/>
	<path class="st1" d="M745.6,92.9l-24.9,42.4l-9.6-5.6L736,87.3L745.6,92.9z"/>
	<path class="st1" d="M776.2,148.2l-14.6-10.7l-6.9,9.4l16.3,11.9l-5.4,7.4l-25.3-18.5l29.1-39.7l24.5,17.9l-5.4,7.4L773,121.9
		l-6,8.2l14.6,10.7L776.2,148.2z"/>
	<path class="st1" d="M803.1,133.4l8.4,7.4l-26.3,29.9l14.7,12.9l-6.2,7l-23.1-20.2L803.1,133.4z"/>
	<path class="st1" d="M832.9,201.3l-12.5-13.1l-8.4,8.1l14,14.6l-6.6,6.3l-21.7-22.7l35.5-34l21,21.9l-6.6,6.3l-13.3-13.9l-7.4,7.1
		l12.5,13.1L832.9,201.3z"/>
	<path class="st1" d="M862.2,191.6l6.8,8.7L852,213.7l0.1,0.2c2.2-0.3,4.3-0.5,6.3-0.7l19.7-1.3l8.4,10.7l-26.5,0.2l-11.6,30.9
		l-8-10.2l9.2-22.6l-6.7-0.1l-12.6,9.9l-6.8-8.7L862.2,191.6z"/>
	<path class="st1" d="M889.1,243.5l-7.1-11.1l7.9-5l20.4,31.8l-7.9,5l-7.2-11.3l-33.5,21.5l-6-9.4L889.1,243.5z"/>
	<path class="st1" d="M914.2,267.6c2.2,2.9,5,7.4,7.7,12.7c3.3,6.5,4.7,11.5,3.9,15.9c-0.7,3.7-3,6.7-7.1,8.7
		c-5.6,2.9-11.4,0.9-14.7-2.2l-0.2,0.1c0.3,3.7-1.7,6.9-5.2,10.1c-4.2,3.9-9.2,8.2-10.5,9.9l-5.2-10.1c0.9-1.3,3.9-4.2,8.6-8.3
		c4.8-4,5.4-6.6,3.4-10.7l-1.5-3l-17.2,8.9l-5.1-9.8L914.2,267.6z M900.5,287.1l2,3.9c2.5,4.9,6.5,6.6,10.3,4.6
		c4-2.1,4.6-5.8,2.3-10.4c-1.2-2.4-2.1-3.7-2.6-4.3L900.5,287.1z"/>
	<path class="st1" d="M929.7,359.9c-15,5.8-27.7,0.2-32.9-13.2c-5.3-13.6,1.9-25.5,15-30.6c13.7-5.3,27.4-0.5,32.6,13
		C949.9,343.3,942.4,355.1,929.7,359.9z M916.3,327c-9,3.5-13.7,10.1-11,17.1c2.7,7,10.9,8.5,19.8,5c8.2-3.2,13.8-9.9,11-17
		C933.5,325.1,925.2,323.6,916.3,327z"/>
	<path class="st1" d="M907.9,374.7l47.6-12.2l3.2,12.6l-14.9,14.4c-4.3,4.1-9.5,8.5-14.3,12l0.1,0.2c6.1-2.3,12.5-4.2,19.6-6
		l13.9-3.6l2.5,9.9L918,414.1l-2.9-11.3l15.8-14.9c4.4-4.1,9.7-8.8,14.7-12.6l-0.1-0.2c-6.2,1.9-12.9,3.8-20.7,5.8l-14.3,3.7
		L907.9,374.7z"/>
	<path class="st1" d="M969.6,425.4l-48.5,8.3l-1.9-11l48.5-8.3L969.6,425.4z"/>
	<path class="st1" d="M971.7,437.6l1,11l-21.6,2l0,0.2c2,0.9,3.8,1.9,5.7,2.8l17.3,9.6l1.3,13.6L953,462.6l-26.5,19.7l-1.2-12.9
		l20-14l-5.6-3.7l-16,1.5l-1-11L971.7,437.6z"/>
	<path class="st1" d="M947,515.1l0-18.1l-11.7,0l0,20.2l-9.1,0l0.1-31.4l49.2,0.1l-0.1,30.4l-9.1,0l0-19.2l-10.2,0l0,18.1L947,515.1
		z"/>
</g>
<path class="st2" d="M674.6,594.3l21,123.6c4.2,24.7-2.7,36-14.9,35l-78.8-6.2c8.3,29,16.2,59.1,23.8,90.4c1.6,6.5,3.1,13,4.6,19.4
	c0.9,3.7,1.7,7.4,2.5,11.1c-7.2,2.6-14.5,5-21.9,7.2c-0.5-3.7-1-7.5-1.5-11.3c-4.3-29-11.2-60-22.1-92.2
	c-7.6-22.5-16.2-43.1-25.2-61.6l98.9,6.1c2.8,0.2,6.8-1.1,6-6.1l-18.9-120.5c-2.5-15.8-3-17.8,6.7-20.1l140.1-43.2
	c17-5.3,12-21.1-6-19.3l-73.2,5.5c-14,1.2-26.6-2.7-37.9-11.6c-37.4-0.1-38.5-8.6-29.9-19.9c32.1-42.4-5.8-50.7-12-12.4
	c-3.9,24.3-21.5,39.9-37.2,48.7l19.2,105.8c4.1,22.7-5.1,32.4-20.6,27.5l-123.7-39.8c-18-5.8-32.4-8.7-33.9-37.8
	c-0.7-11.6-10.1-15.5-18.6-15.1c-85.4,4.5-182.6-17.7-208.8-35.3l12.5-57.6l129.8-2c8.3-3,5.8-10.7-3-10.3l-49,2
	c-10.3,1-13.3-19.8-1-19.6c48.6,0.9,180.4-74.3,108.2-105.9c-77-33.7-268.2,85.8-256.8,205.9c1.6,16.5,9.1,55,57.2,96.8
	c-7.9,7-15.8,14.1-23.7,21.2c-7.9,7.1-15.7,14.3-23.5,21.4c-2.9,2.7-5.8,5.3-8.7,8c-3.1-5.9-6.1-11.8-8.9-17.9
	c3.1-2.3,6.1-4.7,9.2-7.1c0.1-0.1,0.2-0.1,0.2-0.2c9.2-7.1,18.1-14.2,26.8-21.3c-130.3-146.8,29.4-352.6,216.6-343
	c111,5.6,55.8,140-11,147.3c80.9,3.5,78.1,49.3-149.8,47.4l-4.3,22c40,14,113.7,16.6,210.3,21.5c12.8,0.7,14.6,15.2,25.2,43.2
	l112.7,39.2c4.9,1.7,6.1-0.2,4.9-4.9c-32.9-125.2-7.6-110.9,24.8-135.8c26-91.6,103.6-66.8,59.2,2.7c40,31.1,164.1-17.6,172.9,35.7
	C848.5,543.3,782.7,570.2,674.6,594.3z"/>
<g id="XMLID_9_">
	<path class="st2" d="M557.7,263.3v105.8c0,5.2,0,6.5,7.9,7.4v7.3h-25.3v-7.3c7.9-0.9,7.9-1.9,7.9-7.4V263.3c0-5.5,0-6.7-7.9-7.4
		v-7.3h25.3v7.3C557.7,256.6,557.7,257.8,557.7,263.3z"/>
	<path class="st2" d="M596.8,263.3v105.8c0,5.2,0,6.5,7.9,7.4v7.3h-25.3v-7.3c7.9-0.9,7.9-1.9,7.9-7.4V263.3c0-5.5,0-6.7-7.9-7.4
		v-7.3h25.3v7.3C596.8,256.6,596.8,257.8,596.8,263.3z"/>
	<path class="st2" d="M643.5,369.1c0,5.2,0,6.5,7.9,7.4v7.3H626v-7.3c7.9-0.9,7.9-1.9,7.9-7.4V263.3c0-5.5,0-6.7-7.9-7.4v-7.3h25.3
		v7.3c-7.9,0.8-7.9,1.9-7.9,7.4V369.1z"/>
	<path class="st2" d="M734.1,371.3l-6.9,14.9c-3.6-0.9-8.2-1.5-13-1.9c-4.6-0.4-9.2-0.4-12.7-0.4h-24.7v-7.4
		c8.6-0.9,8.6-1.9,8.6-7.4V263.3c0-5.5,0-6.7-8.6-7.4v-7.3h23.2c4.6,0,12.1,0,19-2.8l6.9,13l-5.8,3.3c-3.1-2.5-4.6-4.9-10.9-4.9
		h-14.2v16.5h18c6.3,0,6.9-2.1,7.1-5.3h5.8v19.1h-5.8c-0.6-2.8-1.3-5.3-6.7-5.3h-18.4v93.6h19.7c8.8,0,10.1-4,13.4-8L734.1,371.3z"
		/>
	<rect x="557.7" y="248.6" class="st2" width="28.3" height="7.3"/>
	<g id="XMLID_10_">
		<path id="XMLID_11_" class="st2" d="M643.5,273.8c-1.6-0.2-3.3-0.4-5.1-0.4c-1.6,0-3,0.1-4.4,0.3c-15,1.9-21.2,13.7-21.2,30.6
			c0,12.2,6.8,21.6,21.2,23.8c2,0.3,4.2,0.5,6.5,0.5c1,0,2,0,3-0.1c15.6-1.1,23-11.1,23-24.1C666.4,287.7,658.3,275.9,643.5,273.8z
			 M643.5,324.6c-1,0.1-2,0.2-3,0.2c-2.4,0-4.6-0.3-6.5-0.9c-8.5-2.5-12.7-10.2-12.7-19.7c0-13,4-23.9,12.7-26.6
			c1.3-0.4,2.8-0.6,4.4-0.6c1.9,0,3.6,0.3,5.2,0.8c9.3,2.9,14.5,13.7,14.5,26.5C658,314.9,653,323.2,643.5,324.6z"/>
	</g>
</g>
<path class="st2" d="M870.4,343.5c-20.2-47.9-49.2-90.9-86.2-127.8c-36.9-36.9-79.9-65.9-127.8-86.2C606.9,108.6,554.3,98,500,98
	s-106.9,10.6-156.5,31.6c-47.9,20.2-90.9,49.2-127.8,86.2c-36.9,36.9-65.9,79.9-86.2,127.8C108.6,393.1,98,445.7,98,500
	s10.6,106.9,31.6,156.5c20.2,47.9,49.2,90.9,86.2,127.8c36.9,36.9,79.9,65.9,127.8,86.2c49.6,21,102.2,31.6,156.5,31.6
	s106.9-10.6,156.5-31.6c47.9-20.2,90.9-49.2,127.8-86.2c36.9-36.9,65.9-79.9,86.2-127.8c21-49.6,31.6-102.2,31.6-156.5
	S891.4,393.1,870.4,343.5z M630.2,856.6c-6.9,2.5-13.8,4.8-20.9,7c-34.6,10.4-71.3,16-109.3,16c-146.6,0-274.1-83.6-337.3-205.6
	c-2.9-5.6-5.7-11.3-8.3-17c-21.8-47.9-34-101-34-157c0-209.3,170.3-379.6,379.6-379.6S879.6,290.7,879.6,500
	C879.6,663.6,775.6,803.3,630.2,856.6z"/>
<path class="st3" d="M794.6,525.9l-140.1,43.2c-9.7,2.3-9.3,4.3-6.7,20.1l18.9,120.5c0.8,5.1-3.1,6.4-6,6.1l-98.9-6.1
	c9,18.5,17.6,39,25.2,61.6c10.9,32.2,17.9,63.2,22.1,92.2c-34.6,10.4-71.3,16-109.3,16c-146.6,0-274.1-83.6-337.3-205.6
	c7.8-7.1,15.6-14.3,23.5-21.4c7.9-7.1,15.8-14.2,23.7-21.2c-48.1-41.8-55.6-80.2-57.2-96.8c-11.4-120.1,179.8-239.7,256.8-205.9
	c72.2,31.7-59.6,106.8-108.2,105.9c-12.3-0.2-9.3,20.6,1,19.6l49-2c8.8-0.4,11.3,7.4,3,10.3l-129.8,2L212,522.1
	c26.3,17.6,123.4,39.9,208.8,35.3c8.6-0.4,18,3.5,18.6,15.1c1.5,29,16,32,33.9,37.8L597,650.2c15.5,5,24.7-4.8,20.6-27.5
	l-19.2-105.8c15.7-8.8,33.3-24.4,37.2-48.7c6.2-38.3,44.1-30.1,12,12.4c-8.6,11.3-7.5,19.8,29.9,19.9c11.3,8.9,23.9,12.8,37.9,11.6
	l73.2-5.5C806.6,504.8,811.6,520.6,794.6,525.9z"/>
<path class="st2" d="M500,120.4c-209.3,0-379.6,170.3-379.6,379.6c0,56,12.2,109.1,34,157c0.1-0.1,0.2-0.1,0.2-0.2
	c9.2-7.1,18.1-14.2,26.8-21.3c-130.3-146.8,29.4-352.6,216.6-343c111,5.6,55.8,140-11,147.3c80.9,3.5,78.1,49.3-149.8,47.4l-4.3,22
	c40,14,113.7,16.6,210.3,21.5c12.8,0.7,14.6,15.2,25.2,43.2l112.7,39.2c4.9,1.7,6.1-0.2,4.9-4.9c-32.9-125.2-7.6-110.9,24.8-135.8
	c26-91.6,103.6-66.8,59.2,2.7c40,31.1,164.1-17.6,172.9,35.7c5.4,32.5-60.4,59.5-168.5,83.5l21,123.6c4.2,24.7-2.7,36-14.9,35
	l-78.8-6.2c8.3,29,16.2,59.1,23.8,90.4c1.6,6.5,3.1,13,4.6,19.4c145.4-53.2,249.4-193,249.4-356.6
	C879.6,290.7,709.3,120.4,500,120.4z M604.7,255.8c-7.9,0.8-7.9,1.9-7.9,7.4v105.8c0,5.2,0,6.5,7.9,7.4v7.3h-25.3v-7.3
	c7.9-0.9,7.9-1.9,7.9-7.4V263.3c0-5.5,0-6.7-7.9-7.4h-13.8c-7.9,0.8-7.9,1.9-7.9,7.4v105.8c0,5.2,0,6.5,7.9,7.4v7.3h-25.3v-7.3
	c7.9-0.9,7.9-1.9,7.9-7.4V263.3c0-5.5,0-6.7-7.9-7.4v-7.3h64.4V255.8z M643.5,328.3v40.7c0,5.2,0,6.5,7.9,7.4v7.3H626v-7.3
	c7.9-0.9,7.9-1.9,7.9-7.4V328c-14.4-2.1-21.2-11.6-21.2-23.8c0-16.8,6.2-28.7,21.2-30.6v-10.4c0-5.5,0-6.7-7.9-7.4v-7.3h25.3v7.3
	c-7.9,0.8-7.9,1.9-7.9,7.4v10.5c14.9,2.1,23,13.9,23,30.5C666.4,317.3,659.1,327.2,643.5,328.3z M727.2,386.2
	c-3.6-0.9-8.2-1.5-13-1.9c-4.6-0.4-9.2-0.4-12.7-0.4h-24.7v-7.4c8.6-0.9,8.6-1.9,8.6-7.4V263.3c0-5.5,0-6.7-8.6-7.4v-7.3h23.2
	c4.6,0,12.1,0,19-2.8l6.9,13l-5.8,3.3c-3.1-2.5-4.6-4.9-10.9-4.9h-14.2v16.5h18c6.3,0,6.9-2.1,7.1-5.3h5.8v19.1h-5.8
	c-0.6-2.8-1.3-5.3-6.7-5.3h-18.4v93.6h19.7c8.8,0,10.1-4,13.4-8l5.8,3.8L727.2,386.2z"/>
<path class="st2" d="M658,304.2c0,10.7-4.9,19-14.5,20.4v-46.9C652.7,280.7,658,291.4,658,304.2z"/>
<path class="st2" d="M633.9,277.6V324c-8.5-2.5-12.7-10.2-12.7-19.7C621.2,291.2,625.2,280.3,633.9,277.6z"/>
<g>
	<g>
		<path class="st1" d="M674.6,594.3l21,123.6c4.2,24.7-2.7,36-14.9,35l-78.8-6.2c8.3,29,16.2,59.1,23.8,90.4
			c2.5,10.2,4.8,20.4,7.1,30.5c-7.2,2.6-14.5,5-21.9,7.2c-4-32.2-11.4-67.1-23.7-103.6c-7.6-22.5-16.2-43.1-25.2-61.6l98.9,6.1
			c2.8,0.2,6.7-1.1,6-6.1l-18.9-120.5c-2.5-15.8-3-17.8,6.7-20.1l140.1-43.2c17-5.3,12-21.1-6-19.3l-73.2,5.5
			c-14,1.2-26.6-2.8-37.9-11.6c-37.4-0.1-38.5-8.6-30-19.9c32.1-42.4-5.8-50.7-12-12.4c-3.9,24.3-21.5,39.9-37.2,48.7l19.2,105.8
			c4.1,22.7-5.1,32.4-20.6,27.5l-123.7-39.8c-18-5.8-32.4-8.7-33.9-37.8c-0.7-11.6-10.1-15.5-18.6-15.1
			c-85.4,4.5-182.6-17.7-208.8-35.3l12.5-57.6l129.8-2c8.3-3,5.8-10.7-3-10.3l-49,2c-10.3,1-13.3-19.8-1-19.6
			c48.6,0.9,180.4-74.3,108.2-105.9c-77-33.7-268.2,85.8-256.8,205.9c1.6,16.5,9.1,55,57.2,96.8c-7.9,7-15.8,14.1-23.7,21.2
			c-10.8,9.8-21.6,19.6-32.2,29.3c-3.1-5.9-6.1-11.8-8.9-17.9c3.1-2.4,6.3-4.8,9.5-7.3c9.2-7.1,18.1-14.2,26.8-21.3
			c-130.3-146.8,29.4-352.6,216.6-343c111,5.6,55.8,140-11,147.3c80.9,3.5,78.1,49.3-149.8,47.4l-4.3,22
			c40,14,113.7,16.6,210.3,21.5c12.8,0.7,14.6,15.2,25.2,43.2l112.7,39.2c4.9,1.7,6.1-0.2,4.9-4.9C553.3,483,578.6,497.3,611,472.3
			c26-91.6,103.6-66.8,59.2,2.7c40,31.1,164.1-17.6,172.9,35.7C848.5,543.3,782.7,570.2,674.6,594.3z"/>
		<g id="XMLID_65_">
			<path id="XMLID_73_" class="st1" d="M540.3,383.8v-7.3c7.9-0.9,7.9-1.9,7.9-7.4V263.3c0-5.5,0-6.7-7.9-7.4v-7.3h25.3v7.3
				c-7.9,0.8-7.9,1.9-7.9,7.4v105.8c0,5.2,0,6.5,7.9,7.4v7.3H540.3z"/>
			<path id="XMLID_72_" class="st1" d="M579.4,383.8v-7.3c7.9-0.9,7.9-1.9,7.9-7.4V263.3c0-5.5,0-6.7-7.9-7.4v-7.3h25.3v7.3
				c-7.9,0.8-7.9,1.9-7.9,7.4v105.8c0,5.2,0,6.5,7.9,7.4v7.3H579.4z"/>
			<path id="XMLID_70_" class="st1" d="M626,383.8v-7.3c7.9-0.9,7.9-1.9,7.9-7.4V263.3c0-5.5,0-6.7-7.9-7.4v-7.3h25.3v7.3
				c-7.9,0.8-7.9,1.9-7.9,7.4v105.8c0,5.2,0,6.5,7.9,7.4v7.3H626z"/>
			<path id="XMLID_69_" class="st1" d="M676.9,383.8v-7.3c8.6-0.9,8.6-1.9,8.6-7.4V263.3c0-5.5,0-6.7-8.6-7.4v-7.3h23.2
				c4.6,0,12.1,0,19-2.8l6.9,13l-5.8,3.3c-3.1-2.5-4.6-4.9-10.9-4.9h-14.2v16.5h18c6.3,0,6.9-2.1,7.1-5.3h5.8v19.1h-5.8
				c-0.6-2.8-1.3-5.3-6.7-5.3h-18.4v93.6h19.7c8.8,0,10.1-4,13.4-8l5.8,3.8l-6.9,14.9c-3.6-0.9-8.2-1.5-13-1.9
				c-4.6-0.4-9.2-0.4-12.7-0.4L676.9,383.8L676.9,383.8z"/>
			<path id="XMLID_68_" class="st1" d="M557.7,248.6h28.3v7.3h-28.3V248.6z"/>
			<g id="XMLID_66_">
				<path id="XMLID_67_" class="st1" d="M612.7,304.2c0-18.4,7.4-30.8,25.7-30.8c18.1,0,28.1,12.4,28.1,30.8
					c0,13.9-8.3,24.2-26,24.2C621.5,328.5,612.7,318.1,612.7,304.2z M640.4,324.9c11.6,0,17.5-8.9,17.5-20.6
					c0-15-7.2-27.2-19.7-27.2c-11.7,0-17,12.2-17,27.2C621.1,316,627.6,324.9,640.4,324.9z"/>
			</g>
		</g>
		<path class="st1" d="M500,902c-54.3,0-106.9-10.6-156.5-31.6c-47.9-20.2-90.9-49.2-127.8-86.1c-36.9-36.9-65.9-79.9-86.1-127.8
			C108.6,606.9,98,554.3,98,500s10.6-106.9,31.6-156.5c20.2-47.9,49.2-90.9,86.1-127.8s79.9-65.9,127.8-86.1
			C393.1,108.6,445.7,98,500,98s106.9,10.6,156.5,31.6c47.9,20.2,90.9,49.2,127.8,86.1c36.9,36.9,65.9,79.9,86.1,127.8
			c21,49.6,31.6,102.2,31.6,156.5s-10.6,106.9-31.6,156.5c-20.2,47.9-49.2,90.9-86.1,127.8c-36.9,36.9-79.9,65.9-127.8,86.1
			C606.9,891.4,554.3,902,500,902z M500,120.4c-209.3,0-379.6,170.3-379.6,379.6S290.7,879.6,500,879.6S879.6,709.3,879.6,500
			S709.3,120.4,500,120.4z"/>
	</g>
</g>
<g>
	<path class="st1" d="M296,906.9l-3.4,6.5l-16.9-8.9l3.4-6.5L296,906.9z"/>
	<path class="st1" d="M337.5,949.9l14.7-46.9l12.4,3.9l4.4,20.2c1.2,5.8,2.2,12.5,2.6,18.5l0.2,0.1c1.2-6.4,3-12.8,5.2-19.8
		l4.3-13.7l9.7,3L376.3,962l-11.1-3.5l-4.4-21.2c-1.2-5.9-2.4-12.9-3-19.1l-0.2,0c-1.7,6.3-3.6,12.9-6,20.6l-4.4,14.1L337.5,949.9z"
		/>
	<path class="st1" d="M438,949c-3,15.8-14.5,23.6-28.6,20.9c-14.3-2.7-20.7-15.2-18-28.9c2.8-14.5,14.1-23.5,28.3-20.8
		C434.6,923.1,440.5,935.7,438,949z M403,943c-1.8,9.5,1.4,17,8.7,18.4c7.4,1.4,12.9-4.8,14.7-14.2c1.7-8.7-1.1-16.9-8.6-18.4
		C410.4,927.4,404.8,933.6,403,943z"/>
	<path class="st1" d="M455,975.7l-11.7-50.3l12.1,1l4.3,21.2c1.2,6,2.3,11.7,2.9,17.9l0.2,0c1.7-5.8,3.7-11.5,5.8-16.9l8-20.4
		l11.8,1l-20.5,47.7L455,975.7z"/>
	<path class="st1" d="M503.5,928.7l-0.3,49.2l-11.2-0.1l0.3-49.2L503.5,928.7z"/>
	<path class="st1" d="M529.9,965.7c3.1,1.2,7.8,2.3,12.6,1.9c5.1-0.5,7.6-2.8,7.3-6c-0.3-3-2.8-4.6-8.9-6.1
		c-8.4-2.1-14.1-6.1-14.8-13.2c-0.8-8.4,5.6-15.4,17.1-16.5c5.5-0.5,9.7,0.3,12.7,1.3l-1.6,9.2c-2.1-0.8-5.7-1.8-10.5-1.4
		s-6.9,2.9-6.7,5.4c0.3,3.1,3.2,4.2,9.7,6c8.9,2.4,13.4,6.5,14.1,13.4c0.8,8.2-4.9,15.8-18.3,17.1c-5.6,0.5-11.2-0.4-14.2-1.7
		L529.9,965.7z"/>
	<path class="st1" d="M581.7,958.1l-1,13.1l-11.3,2.2l5.3-51.1l14.3-2.8l24.4,45.3l-11.7,2.3l-6.1-11.7L581.7,958.1z M592.3,947.6
		l-5-9.7c-1.4-2.7-3-6.1-4.3-8.8l-0.1,0c-0.2,3-0.2,6.8-0.4,9.7l-0.9,10.8L592.3,947.6z"/>
	<path class="st1" d="M608.6,916c3.7-1.8,8.7-3.8,14-5.5c8.9-2.8,15.2-3,20.8-1c6,2.1,10.9,6.9,13.5,15.2c2.8,9,1.5,16.2-1.8,21.5
		c-3.7,5.7-10.6,10-19.8,12.8c-5.5,1.7-9.5,2.6-12.3,3.1L608.6,916z M631.2,950.9c1-0.1,2.4-0.5,3.8-0.9
		c9.6-2.9,14.2-10.2,10.7-21.4c-3-9.8-10.3-13.1-19.4-10.3c-2.4,0.7-3.8,1.4-4.7,1.9L631.2,950.9z"/>
	<path class="st1" d="M720.7,898l3.4,6.5l-16.9,8.9l-3.4-6.5L720.7,898z"/>
</g>
</svg>
